<mxfile host="Electron" modified="2024-04-02T20:40:33.563Z" agent="Mozilla/5.0 (X11; Linux x86_64) AppleWebKit/537.36 (KHTML, like Gecko) draw.io/24.1.0 Chrome/120.0.6099.109 Electron/28.1.0 Safari/537.36" etag="BftnfLbeXv2_r6HPQg9m" version="24.1.0" type="device">
  <diagram name="Página-1" id="Z0M5ct8pKGFRJGwm1SQI">
    <mxGraphModel dx="1434" dy="875" grid="1" gridSize="10" guides="1" tooltips="1" connect="1" arrows="1" fold="1" page="1" pageScale="1" pageWidth="827" pageHeight="1169" math="0" shadow="0">
      <root>
        <mxCell id="0" />
        <mxCell id="1" parent="0" />
        <mxCell id="UKRoAkC1zwuCXs3WV2_v-48" value="" style="rounded=0;whiteSpace=wrap;html=1;" vertex="1" parent="1">
          <mxGeometry x="107.5" y="560" width="625" height="530" as="geometry" />
        </mxCell>
        <mxCell id="UKRoAkC1zwuCXs3WV2_v-1" value="Mercado" style="ellipse;shape=cloud;whiteSpace=wrap;html=1;" vertex="1" parent="1">
          <mxGeometry x="325" y="10" width="190" height="110" as="geometry" />
        </mxCell>
        <mxCell id="UKRoAkC1zwuCXs3WV2_v-3" value="SQS" style="shape=cylinder3;whiteSpace=wrap;html=1;boundedLbl=1;backgroundOutline=1;size=15;" vertex="1" parent="1">
          <mxGeometry x="390" y="240" width="60" height="80" as="geometry" />
        </mxCell>
        <mxCell id="UKRoAkC1zwuCXs3WV2_v-6" value="" style="endArrow=classic;html=1;rounded=0;exitX=0.492;exitY=0.962;exitDx=0;exitDy=0;exitPerimeter=0;" edge="1" parent="1" source="UKRoAkC1zwuCXs3WV2_v-1" target="UKRoAkC1zwuCXs3WV2_v-3">
          <mxGeometry width="50" height="50" relative="1" as="geometry">
            <mxPoint x="390" y="470" as="sourcePoint" />
            <mxPoint x="440" y="410" as="targetPoint" />
          </mxGeometry>
        </mxCell>
        <mxCell id="UKRoAkC1zwuCXs3WV2_v-7" value="O mercado posta seus preços" style="edgeLabel;html=1;align=center;verticalAlign=middle;resizable=0;points=[];" vertex="1" connectable="0" parent="UKRoAkC1zwuCXs3WV2_v-6">
          <mxGeometry x="-0.0908" y="1" relative="1" as="geometry">
            <mxPoint as="offset" />
          </mxGeometry>
        </mxCell>
        <mxCell id="UKRoAkC1zwuCXs3WV2_v-9" value="SQS Listener" style="rounded=0;whiteSpace=wrap;html=1;" vertex="1" parent="1">
          <mxGeometry x="310" y="420" width="220" height="60" as="geometry" />
        </mxCell>
        <mxCell id="UKRoAkC1zwuCXs3WV2_v-10" value="" style="endArrow=classic;html=1;rounded=0;entryX=0.145;entryY=1;entryDx=0;entryDy=-4.35;entryPerimeter=0;exitX=0.125;exitY=-0.034;exitDx=0;exitDy=0;exitPerimeter=0;" edge="1" parent="1" source="UKRoAkC1zwuCXs3WV2_v-9" target="UKRoAkC1zwuCXs3WV2_v-3">
          <mxGeometry width="50" height="50" relative="1" as="geometry">
            <mxPoint x="390" y="470" as="sourcePoint" />
            <mxPoint x="500" y="340" as="targetPoint" />
          </mxGeometry>
        </mxCell>
        <mxCell id="UKRoAkC1zwuCXs3WV2_v-11" value="checa mensagens" style="edgeLabel;html=1;align=center;verticalAlign=middle;resizable=0;points=[];" vertex="1" connectable="0" parent="UKRoAkC1zwuCXs3WV2_v-10">
          <mxGeometry x="-0.378" y="2" relative="1" as="geometry">
            <mxPoint as="offset" />
          </mxGeometry>
        </mxCell>
        <mxCell id="UKRoAkC1zwuCXs3WV2_v-14" value="" style="endArrow=classic;html=1;rounded=0;exitX=0.855;exitY=1;exitDx=0;exitDy=-4.35;exitPerimeter=0;entryX=0.948;entryY=0.028;entryDx=0;entryDy=0;entryPerimeter=0;" edge="1" parent="1" source="UKRoAkC1zwuCXs3WV2_v-3" target="UKRoAkC1zwuCXs3WV2_v-9">
          <mxGeometry width="50" height="50" relative="1" as="geometry">
            <mxPoint x="390" y="470" as="sourcePoint" />
            <mxPoint x="510" y="420" as="targetPoint" />
          </mxGeometry>
        </mxCell>
        <mxCell id="UKRoAkC1zwuCXs3WV2_v-15" value="Lê mensagens" style="edgeLabel;html=1;align=center;verticalAlign=middle;resizable=0;points=[];" vertex="1" connectable="0" parent="UKRoAkC1zwuCXs3WV2_v-14">
          <mxGeometry x="0.2513" y="-1" relative="1" as="geometry">
            <mxPoint as="offset" />
          </mxGeometry>
        </mxCell>
        <mxCell id="UKRoAkC1zwuCXs3WV2_v-16" style="edgeStyle=orthogonalEdgeStyle;rounded=0;orthogonalLoop=1;jettySize=auto;html=1;exitX=0.75;exitY=0;exitDx=0;exitDy=0;entryX=0.853;entryY=0.023;entryDx=0;entryDy=0;entryPerimeter=0;" edge="1" parent="1" source="UKRoAkC1zwuCXs3WV2_v-9" target="UKRoAkC1zwuCXs3WV2_v-9">
          <mxGeometry relative="1" as="geometry" />
        </mxCell>
        <mxCell id="UKRoAkC1zwuCXs3WV2_v-17" value="Load Balance / Escalonamento (Kubernetes)" style="rounded=0;whiteSpace=wrap;html=1;" vertex="1" parent="1">
          <mxGeometry x="215" y="600" width="410" height="60" as="geometry" />
        </mxCell>
        <mxCell id="UKRoAkC1zwuCXs3WV2_v-18" value="" style="endArrow=classic;html=1;rounded=0;entryX=0.5;entryY=0;entryDx=0;entryDy=0;exitX=0.5;exitY=1;exitDx=0;exitDy=0;" edge="1" parent="1" source="UKRoAkC1zwuCXs3WV2_v-9" target="UKRoAkC1zwuCXs3WV2_v-17">
          <mxGeometry width="50" height="50" relative="1" as="geometry">
            <mxPoint x="390" y="650" as="sourcePoint" />
            <mxPoint x="440" y="600" as="targetPoint" />
          </mxGeometry>
        </mxCell>
        <mxCell id="UKRoAkC1zwuCXs3WV2_v-19" value="API POST Mensagem" style="edgeLabel;html=1;align=center;verticalAlign=middle;resizable=0;points=[];" vertex="1" connectable="0" parent="UKRoAkC1zwuCXs3WV2_v-18">
          <mxGeometry x="-0.0833" y="1" relative="1" as="geometry">
            <mxPoint as="offset" />
          </mxGeometry>
        </mxCell>
        <mxCell id="UKRoAkC1zwuCXs3WV2_v-26" value="Multithread process" style="rounded=0;whiteSpace=wrap;html=1;" vertex="1" parent="1">
          <mxGeometry x="190" y="770" width="140" height="230" as="geometry" />
        </mxCell>
        <mxCell id="UKRoAkC1zwuCXs3WV2_v-27" value="Thread 1" style="rounded=0;whiteSpace=wrap;html=1;" vertex="1" parent="1">
          <mxGeometry x="200" y="790" width="120" height="30" as="geometry" />
        </mxCell>
        <mxCell id="UKRoAkC1zwuCXs3WV2_v-28" value="Thread 2" style="rounded=0;whiteSpace=wrap;html=1;" vertex="1" parent="1">
          <mxGeometry x="200" y="840" width="120" height="30" as="geometry" />
        </mxCell>
        <mxCell id="UKRoAkC1zwuCXs3WV2_v-29" value="Thread 3" style="rounded=0;whiteSpace=wrap;html=1;" vertex="1" parent="1">
          <mxGeometry x="200" y="900" width="120" height="30" as="geometry" />
        </mxCell>
        <mxCell id="UKRoAkC1zwuCXs3WV2_v-30" value="Thread 4" style="rounded=0;whiteSpace=wrap;html=1;fontStyle=1" vertex="1" parent="1">
          <mxGeometry x="200" y="950" width="120" height="30" as="geometry" />
        </mxCell>
        <mxCell id="UKRoAkC1zwuCXs3WV2_v-31" value="Multithread process" style="rounded=0;whiteSpace=wrap;html=1;" vertex="1" parent="1">
          <mxGeometry x="350" y="770" width="140" height="230" as="geometry" />
        </mxCell>
        <mxCell id="UKRoAkC1zwuCXs3WV2_v-32" value="Thread 1" style="rounded=0;whiteSpace=wrap;html=1;" vertex="1" parent="1">
          <mxGeometry x="360" y="790" width="120" height="30" as="geometry" />
        </mxCell>
        <mxCell id="UKRoAkC1zwuCXs3WV2_v-33" value="Thread 2" style="rounded=0;whiteSpace=wrap;html=1;" vertex="1" parent="1">
          <mxGeometry x="360" y="840" width="120" height="30" as="geometry" />
        </mxCell>
        <mxCell id="UKRoAkC1zwuCXs3WV2_v-34" value="Thread 3" style="rounded=0;whiteSpace=wrap;html=1;" vertex="1" parent="1">
          <mxGeometry x="360" y="900" width="120" height="30" as="geometry" />
        </mxCell>
        <mxCell id="UKRoAkC1zwuCXs3WV2_v-35" value="Thread 4" style="rounded=0;whiteSpace=wrap;html=1;fontStyle=1" vertex="1" parent="1">
          <mxGeometry x="360" y="950" width="120" height="30" as="geometry" />
        </mxCell>
        <mxCell id="UKRoAkC1zwuCXs3WV2_v-36" value="Multithread process" style="rounded=0;whiteSpace=wrap;html=1;" vertex="1" parent="1">
          <mxGeometry x="510" y="770" width="140" height="230" as="geometry" />
        </mxCell>
        <mxCell id="UKRoAkC1zwuCXs3WV2_v-37" value="Thread 1" style="rounded=0;whiteSpace=wrap;html=1;" vertex="1" parent="1">
          <mxGeometry x="520" y="790" width="120" height="30" as="geometry" />
        </mxCell>
        <mxCell id="UKRoAkC1zwuCXs3WV2_v-38" value="Thread 2" style="rounded=0;whiteSpace=wrap;html=1;" vertex="1" parent="1">
          <mxGeometry x="520" y="840" width="120" height="30" as="geometry" />
        </mxCell>
        <mxCell id="UKRoAkC1zwuCXs3WV2_v-39" value="Thread 3" style="rounded=0;whiteSpace=wrap;html=1;" vertex="1" parent="1">
          <mxGeometry x="520" y="900" width="120" height="30" as="geometry" />
        </mxCell>
        <mxCell id="UKRoAkC1zwuCXs3WV2_v-40" value="Thread 4" style="rounded=0;whiteSpace=wrap;html=1;fontStyle=1" vertex="1" parent="1">
          <mxGeometry x="520" y="950" width="120" height="30" as="geometry" />
        </mxCell>
        <mxCell id="UKRoAkC1zwuCXs3WV2_v-41" value="" style="endArrow=classic;html=1;rounded=0;entryX=0.5;entryY=0;entryDx=0;entryDy=0;exitX=0.108;exitY=1.052;exitDx=0;exitDy=0;exitPerimeter=0;" edge="1" parent="1" source="UKRoAkC1zwuCXs3WV2_v-17" target="UKRoAkC1zwuCXs3WV2_v-26">
          <mxGeometry width="50" height="50" relative="1" as="geometry">
            <mxPoint x="390" y="650" as="sourcePoint" />
            <mxPoint x="440" y="600" as="targetPoint" />
          </mxGeometry>
        </mxCell>
        <mxCell id="UKRoAkC1zwuCXs3WV2_v-42" value="" style="endArrow=classic;html=1;rounded=0;exitX=0.5;exitY=1;exitDx=0;exitDy=0;entryX=0.5;entryY=0;entryDx=0;entryDy=0;" edge="1" parent="1" source="UKRoAkC1zwuCXs3WV2_v-17" target="UKRoAkC1zwuCXs3WV2_v-31">
          <mxGeometry width="50" height="50" relative="1" as="geometry">
            <mxPoint x="414" y="680" as="sourcePoint" />
            <mxPoint x="464" y="790" as="targetPoint" />
          </mxGeometry>
        </mxCell>
        <mxCell id="UKRoAkC1zwuCXs3WV2_v-43" value="" style="endArrow=classic;html=1;rounded=0;entryX=0.5;entryY=0;entryDx=0;entryDy=0;" edge="1" parent="1" target="UKRoAkC1zwuCXs3WV2_v-36">
          <mxGeometry width="50" height="50" relative="1" as="geometry">
            <mxPoint x="580" y="670" as="sourcePoint" />
            <mxPoint x="440" y="600" as="targetPoint" />
          </mxGeometry>
        </mxCell>
        <mxCell id="UKRoAkC1zwuCXs3WV2_v-45" value="Java instance" style="text;html=1;align=center;verticalAlign=middle;resizable=0;points=[];autosize=1;strokeColor=none;fillColor=none;" vertex="1" parent="1">
          <mxGeometry x="215" y="1010" width="100" height="30" as="geometry" />
        </mxCell>
        <mxCell id="UKRoAkC1zwuCXs3WV2_v-46" value="Java instance" style="text;html=1;align=center;verticalAlign=middle;resizable=0;points=[];autosize=1;strokeColor=none;fillColor=none;" vertex="1" parent="1">
          <mxGeometry x="370" y="1010" width="100" height="30" as="geometry" />
        </mxCell>
        <mxCell id="UKRoAkC1zwuCXs3WV2_v-47" value="Java instance" style="text;html=1;align=center;verticalAlign=middle;resizable=0;points=[];autosize=1;strokeColor=none;fillColor=none;" vertex="1" parent="1">
          <mxGeometry x="530" y="1010" width="100" height="30" as="geometry" />
        </mxCell>
        <mxCell id="UKRoAkC1zwuCXs3WV2_v-49" value="Java" style="text;html=1;align=center;verticalAlign=middle;resizable=0;points=[];autosize=1;strokeColor=none;fillColor=none;" vertex="1" parent="1">
          <mxGeometry x="310" y="450" width="50" height="30" as="geometry" />
        </mxCell>
        <mxCell id="UKRoAkC1zwuCXs3WV2_v-50" value="AWS" style="text;html=1;align=center;verticalAlign=middle;resizable=0;points=[];autosize=1;strokeColor=none;fillColor=none;" vertex="1" parent="1">
          <mxGeometry x="395" y="320" width="50" height="30" as="geometry" />
        </mxCell>
        <mxCell id="UKRoAkC1zwuCXs3WV2_v-52" value="Deployment Kubernetes" style="text;html=1;align=center;verticalAlign=middle;resizable=0;points=[];autosize=1;strokeColor=none;fillColor=none;" vertex="1" parent="1">
          <mxGeometry x="107.5" y="560" width="150" height="30" as="geometry" />
        </mxCell>
        <mxCell id="UKRoAkC1zwuCXs3WV2_v-53" value="Instâcias ecalonaas dinammicamente" style="text;html=1;align=center;verticalAlign=middle;resizable=0;points=[];autosize=1;strokeColor=none;fillColor=none;" vertex="1" parent="1">
          <mxGeometry x="304" y="1060" width="220" height="30" as="geometry" />
        </mxCell>
      </root>
    </mxGraphModel>
  </diagram>
</mxfile>
